<?xml version="1.0" encoding="UTF-8" standalone="no"?>
<svg
   xmlns:dc="http://purl.org/dc/elements/1.1/"
   xmlns:cc="http://creativecommons.org/ns#"
   xmlns:rdf="http://www.w3.org/1999/02/22-rdf-syntax-ns#"
   xmlns:svg="http://www.w3.org/2000/svg"
   xmlns="http://www.w3.org/2000/svg"
   style="fill:#000000"
   version="1.1"
   id="svg2"
   width="88"
   viewBox="0 0 44 44"
   height="88">
  <metadata
     id="metadata12">
    <rdf:RDF>
      <cc:Work
         rdf:about="">
        <dc:format>image/svg+xml</dc:format>
        <dc:type
           rdf:resource="http://purl.org/dc/dcmitype/StillImage" />
        <dc:title></dc:title>
      </cc:Work>
    </rdf:RDF>
  </metadata>
  <defs
     id="defs10" />
  <path
     style="fill:none"
     id="path4"
     d="m 0,20 24,0 0,24 -24,0 z" />
  <path
     style="fill:#ff8000;fill-opacity:1"
     id="path6"
     d="M 22,2 C 10.96,2 2,10.96 2,22 2,33.04 10.96,42 22,42 33.04,42 42,33.04 42,22 42,10.96 33.04,2 22,2 Z m 2,34 -4,0 0,-4 4,0 0,4 z m 4.14,-15.5 -1.8,1.84 C 24.9,23.8 24,25 24,28 l -4,0 0,-1 c 0,-2.2 0.9,-4.2 2.34,-5.66 l 2.48,-2.52 C 25.56,18.1 26,17.1 26,16 c 0,-2.2 -1.8,-4 -4,-4 -2.2,0 -4,1.8 -4,4 l -4,0 c 0,-4.42 3.58,-8 8,-8 4.42,0 8,3.58 8,8 0,1.76 -0.72,3.36 -1.86,4.5 z" />
</svg>
