<?xml version="1.0" encoding="UTF-8" standalone="no"?>
<svg
   xmlns:osb="http://www.openswatchbook.org/uri/2009/osb"
   xmlns:dc="http://purl.org/dc/elements/1.1/"
   xmlns:cc="http://creativecommons.org/ns#"
   xmlns:rdf="http://www.w3.org/1999/02/22-rdf-syntax-ns#"
   xmlns:svg="http://www.w3.org/2000/svg"
   xmlns="http://www.w3.org/2000/svg"
   version="1.1"
   id="svg2"
   viewBox="0 0 48 48.000001"
   height="48"
   width="48">
  <defs
     id="defs4">
    <linearGradient
       osb:paint="solid"
       id="linearGradient5606">
      <stop
         id="stop5608"
         offset="0"
         style="stop-color:#000000;stop-opacity:1;" />
    </linearGradient>
  </defs>
  <metadata
     id="metadata7">
    <rdf:RDF>
      <cc:Work
         rdf:about="">
        <dc:format>image/svg+xml</dc:format>
        <dc:type
           rdf:resource="http://purl.org/dc/dcmitype/StillImage" />
        <dc:title></dc:title>
      </cc:Work>
    </rdf:RDF>
  </metadata>
  <g
     transform="translate(-470.28572,-494.07649)"
     id="layer1">
    <path
       id="path4138"
       d="m 470.28572,494.07649 48,0 0,48 -48,0 z"
       style="fill:none;" />
    <path
       id="path4140"
       d="m 510.28572,506.07649 -16,0 -4,-4 -12,0 c -2.2,0 -3.98,1.8 -3.98,4 l -0.02,24 c 0,2.2 1.8,4 4,4 l 32,0 c 2.2,0 4,-1.8 4,-4 l 0,-20 c 0,-2.2 -1.8,-4 -4,-4 z m 0,24 -32,0 0,-20 32,0 0,20 z"
       style="fill:#ff8000;stroke:#ff8000;stroke-width:2;stroke-opacity:1;fill-opacity:1" />
  </g>
</svg>
